<?xml version="1.0" encoding="UTF-8"?>
<svg id="Layer_2" data-name="Layer 2" xmlns="http://www.w3.org/2000/svg" viewBox="0 0 141.89 73.35">
  <defs>
    <style>
      .cls-1 {
        fill: #6d6e71;
      }

      .cls-2 {
        fill: #00a1e0;
      }
    </style>
  </defs>
  <g id="Layer_1-2" data-name="Layer 1">
    <g>
      <g>
        <path class="cls-2" d="m5.76,47.77H0v-24.72h18.68v4.59H5.76v20.13Zm-.46-13.6h11.87v4.59H5.3v-4.59Z"/>
        <path class="cls-2" d="m29.32,48.05c-2,0-3.79-.42-5.35-1.27-1.57-.85-2.8-2.01-3.69-3.48-.9-1.47-1.34-3.15-1.34-5.03s.45-3.6,1.34-5.07c.89-1.47,2.12-2.63,3.69-3.46,1.57-.83,3.35-1.25,5.35-1.25s3.83.42,5.4,1.25c1.58.84,2.81,1.99,3.71,3.46.89,1.47,1.34,3.16,1.34,5.07s-.45,3.59-1.34,5.05c-.9,1.46-2.13,2.61-3.71,3.46-1.58.85-3.38,1.27-5.4,1.27Zm0-4.52c.94,0,1.77-.21,2.49-.62.72-.41,1.29-1.02,1.73-1.82.44-.8.65-1.74.65-2.83s-.22-2.05-.65-2.83c-.44-.78-1.01-1.37-1.73-1.78-.72-.41-1.54-.62-2.45-.62s-1.74.21-2.47.62c-.73.41-1.31,1.01-1.75,1.78-.44.78-.65,1.72-.65,2.83s.22,2.03.65,2.83c.44.8,1.02,1.41,1.75,1.82.73.41,1.54.62,2.44.62Z"/>
        <path class="cls-2" d="m42.07,47.77v-19h5.26v5.4l-.74-1.59c.56-1.34,1.47-2.36,2.72-3.05,1.25-.7,2.77-1.04,4.56-1.04v5.12c-.21-.05-.42-.08-.62-.11-.2-.02-.39-.04-.58-.04-1.55,0-2.79.44-3.71,1.31-.92.87-1.38,2.21-1.38,4.03v8.97h-5.51Z"/>
        <path class="cls-2" d="m64.78,48.05c-2.05,0-3.87-.42-5.46-1.25-1.59-.84-2.84-2-3.74-3.48-.91-1.48-1.36-3.17-1.36-5.05s.45-3.59,1.36-5.05c.91-1.46,2.15-2.61,3.74-3.46,1.59-.85,3.41-1.27,5.46-1.27s3.75.42,5.25,1.25c1.49.84,2.57,2.02,3.23,3.55l-4.24,2.33c-.52-.89-1.14-1.55-1.87-1.96-.73-.41-1.53-.62-2.4-.62-.92,0-1.75.21-2.51.62-.75.41-1.35,1.01-1.8,1.78-.45.78-.67,1.72-.67,2.83s.22,2.05.67,2.84c.45.79,1.05,1.39,1.8,1.8.75.41,1.59.62,2.51.62s1.67-.21,2.4-.62c.73-.41,1.35-1.08,1.87-2l4.24,2.33c-.66,1.51-1.74,2.69-3.23,3.53-1.5.85-3.24,1.27-5.25,1.27Z"/>
        <path class="cls-2" d="m84.27,48.05c-2.17,0-4.06-.42-5.69-1.27s-2.88-2.01-3.78-3.48c-.9-1.47-1.34-3.15-1.34-5.03s.43-3.57,1.29-5.05c.86-1.48,2.06-2.64,3.6-3.48,1.54-.83,3.28-1.25,5.21-1.25s3.54.4,5.03,1.2c1.5.8,2.68,1.93,3.55,3.39.87,1.46,1.31,3.21,1.31,5.26,0,.21-.01.45-.04.72-.02.27-.05.53-.07.76h-15.43v-3.21h12.54l-2.15.95c.02-.99-.17-1.85-.57-2.58-.4-.73-.95-1.3-1.66-1.71-.71-.41-1.53-.62-2.47-.62s-1.77.21-2.49.62c-.72.41-1.28.99-1.68,1.73-.4.74-.6,1.62-.6,2.63v.85c0,1.06.24,1.98.71,2.75s1.12,1.37,1.94,1.78c.82.41,1.81.62,2.97.62.99,0,1.87-.15,2.63-.46.76-.31,1.47-.76,2.1-1.38l2.93,3.18c-.87.99-1.97,1.75-3.29,2.28-1.32.53-2.84.79-4.56.79Z"/>
      </g>
      <g>
        <path class="cls-1" d="m48.71,73.35c-1.86,0-3.58-.31-5.16-.94-1.58-.62-2.94-1.5-4.1-2.63s-2.05-2.46-2.7-3.99c-.65-1.53-.97-3.2-.97-5.01s.32-3.49.97-5.02c.65-1.53,1.55-2.86,2.72-3.99,1.17-1.13,2.54-2.01,4.11-2.63,1.58-.62,3.3-.94,5.16-.94s3.47.3,5.05.9,2.91,1.5,3.99,2.7l-1.66,1.66c-1.01-1.04-2.13-1.78-3.36-2.24s-2.54-.69-3.96-.69c-1.48,0-2.86.25-4.13.76-1.27.51-2.38,1.22-3.32,2.15-.94.93-1.68,2.01-2.21,3.25-.53,1.24-.79,2.6-.79,4.08s.26,2.84.79,4.08c.53,1.24,1.27,2.32,2.21,3.25.94.93,2.05,1.65,3.32,2.15,1.27.51,2.65.76,4.13.76s2.73-.24,3.96-.71c1.22-.47,2.34-1.22,3.36-2.26l1.66,1.66c-1.08,1.2-2.41,2.11-3.99,2.72-1.58.61-3.27.92-5.09.92Z"/>
        <path class="cls-1" d="m59.94,73.14v-18.54h2.4v5.05l-.25-.88c.52-1.41,1.39-2.49,2.61-3.23,1.22-.74,2.74-1.11,4.56-1.11v2.44c-.09,0-.19,0-.28-.02-.09-.01-.19-.02-.28-.02-1.96,0-3.49.6-4.59,1.78-1.11,1.19-1.66,2.88-1.66,5.07v9.47h-2.51Z"/>
        <path class="cls-1" d="m78.31,73.31c-1.79,0-3.4-.41-4.82-1.22-1.42-.81-2.55-1.93-3.37-3.36s-1.24-3.06-1.24-4.89.41-3.5,1.24-4.91c.82-1.41,1.94-2.52,3.36-3.32,1.41-.8,3.03-1.2,4.84-1.2s3.47.4,4.89,1.2c1.42.8,2.54,1.91,3.36,3.32.81,1.41,1.22,3.05,1.22,4.91s-.41,3.47-1.22,4.89-1.94,2.54-3.37,3.36c-1.44.81-3.06,1.22-4.87,1.22Zm0-2.23c1.34,0,2.53-.3,3.57-.9s1.85-1.45,2.46-2.54.9-2.36.9-3.8-.3-2.73-.9-3.81-1.42-1.93-2.46-2.53c-1.04-.6-2.21-.9-3.53-.9s-2.5.3-3.53.9c-1.04.6-1.86,1.44-2.47,2.53s-.92,2.35-.92,3.81.31,2.7.92,3.8,1.44,1.94,2.47,2.54,2.2.9,3.5.9Z"/>
        <path class="cls-1" d="m93.24,73.14l-6.99-18.54h2.4l6.36,17.2h-1.09l6.53-17.2h2.15l6.46,17.2h-1.1l6.46-17.2h2.3l-7.03,18.54h-2.37l-6.21-16.18h.74l-6.25,16.18h-2.37Z"/>
      </g>
      <path class="cls-2" d="m99.42,39.52c-.77-.26-1-.23-1-.23-.25-.04-2.31.34-2.55.39.38-.86,1.19-1.28,2.05-1.59.86-.31,1.82-.93,2.08-1.06.63-.31,2.78-.15,3.29.08.27-.43-1-5.3-1.02-7.01,0-.59.95,1.35.95,1.35,0,0-1.97-9.46-1.81-10.16.16-.7,1.73,2.16,1.73,2.16,0,0-.88-10.6-.12-10.56.2.01.75,3.51.75,3.51,0,0,2.22-9.66,5.82-13.37.4-.02-1.99,3.84-2.14,7.46,1.66-5.15,4.58-8.74,7.2-10.49.43.1-4.38,6.59-5.61,12.47,1.53-2.72,4.05-7.75,7.25-10.06.45-.29-2.92,4.38-4.24,8.29,1.5-1.42,3.2-3.06,4.48-3.38.44-.05-3.55,5.09-4.49,7.84,0,0,1.17-1.28,1.62-1.41.44-.13-1.88,4.83-1.7,7.99.18,3.17,1.98,3.54,2.45,7.16.47,3.62,2.37,2.77,4.74.54,2.37-2.24,7.29-4.14,8.58-6.2,1.3-2.06,2.82-5.45,3.21-6.1.39-.65-.43,2.74-.43,2.74.32.11,4.16-7.51,5.16-10.14.14-.38.42,1.8-1.35,6.09,1.28-1.06,5.57-10.14,5.53-9.4-.04.75-1.2,5.81-5.58,14.22,1.02-.65,7.72-10,7.61-9.63-.89,2.89-6.15,11.52-6.15,11.52.72-.35,4.75-4.86,4.53-4.27-.8,2.18-5.53,8.72-5.53,8.72,0,0,4.06-1.55,3.66-1.06-.92,1.13-8.89,4.77-8.89,4.77,0,0,3.35-.86,2.71-.29-.93.84-7.17,5.5-7.17,5.5,0,0,1.96-.73,1.51-.34-2.19,1.96-10.42,8.45-10.66,9.47-1.02,2.92,10.02,6.85,9.76,6.92-.27.07-.65-.04-3.96-1.27,1.18.77,4.35,3,4.47,3.29.09.22-2.75-.71-2.75-.71,0,0,2.07,2.19,1.74,2.13-.33-.06-3.7-1.94-3.7-1.94,0,0,3.18,3.55,2.59,3.13-.59-.43-3.15-2.45-4.06-3.37-4.59-4.66-6.72-1.94-7.45-1.46-.56.38-1.23.74-1.99.86-.25.71-.52,1.36-.72,1.45-.48.21-4.31,1.06-4.53,1.37-.07.18.31.2.56.29.98.33.9.81.9.81l-.29-.18s-.51.13-1.34-.4c-.75.5-.82.53-.84.82-.02.3.13.89.29,1.31.15.38-.24.5-.03.78-.51-.19-.94-1.55-1.03-2.14-.68.85-.86,1.26-1.18,1.56-.14.07-.23.66-.23.66-.4-.17-.28-.61-.28-.61-.17-.45.83-1.6,1.16-1.97-.58,0-1.54.74-1.54.74-.15-.05-.37.32-.37.32-.16-.4.23-.63.23-.63.02-.3,1.41-.72,2.35-1.43.42-.51,4.44-1.96,5.28-2.23.16-.13.3-.38.43-.68-.33-.36-.14-1.15-1.42-1.8-.47-.23-.9-.31-1.28-.32-.07.13-.14.21-.2.24-.48.22-4.27,1.19-4.49,1.5-.06.18.32.2.57.27.99.3.92.78.92.78l-.3-.17s-.5.15-1.35-.36c-.14.1-.25.27-.14.53.12.27.53.73.87,1.03.31.27.02.55.33.71-.54.07-1.55-.94-1.9-1.42-.21,1.07-.18,1.51-.32,1.93-.1.13.11.69.11.69-.43.03-.53-.41-.53-.41-.36-.33,0-1.81.12-2.28-.52.26-1.02,1.37-1.02,1.37-.16.02-.18.45-.18.45-.33-.28-.09-.67-.09-.67-.12-.28.92-1.29,1.42-2.35.12-.59,3.53-1.93,4.77-2.39,0-.08.02-.18.04-.29,0-.02,0-.04,0-.06-.2-.43-.13-2.09-.13-2.09-.33-1.44-1.12-3.12-2.36-4.46-.65-.7-3.24-1.8-3.24-1.8-.32-.02-2.76.67-2.76.67.02-.45,3.14-1.88,2.6-2.26Z"/>
    </g>
  </g>
</svg>