<?xml version="1.0" encoding="UTF-8"?>
<svg id="Layer_2" data-name="Layer 2" xmlns="http://www.w3.org/2000/svg" viewBox="0 0 131.11 91.79">
  <defs>
    <style>
      .cls-1 {
        fill: #00a1e0;
        fill-rule: evenodd;
      }
    </style>
  </defs>
  <g id="Layer_1-2" data-name="Layer 1">
    <path class="cls-1" d="m102.83,12.43c-3.93,0-7.83.83-11.42,2.43-4.05-7.18-11.56-12-20.24-12-6.5,0-12.39,2.73-16.62,7.13v.03C49.94,3.93,42.57,0,34.33,0,20.26,0,8.84,11.37,8.84,25.44c0,3.48.71,6.92,2.1,10.12C4.4,39.41,0,46.54,0,54.73c0,12.19,9.78,22.11,21.87,22.11,1.51,0,3.02-.16,4.5-.47,3.32,9.01,11.95,15.42,22.11,15.42s18.09-5.93,21.68-14.36c2.82,1.38,5.92,2.09,9.06,2.08,7.71,0,14.48-4.29,18.02-10.6,1.82.36,3.68.55,5.59.55,15.61,0,28.28-12.77,28.28-28.52s-12.67-28.52-28.28-28.52Zm-14.05,21.29c-.87,2.36-6,9.47-6,9.47,0,0,4.41-1.69,3.97-1.15-1,1.22-9.65,5.18-9.65,5.18,0,0,3.64-.94,2.94-.32-1.01.91-7.79,5.97-7.79,5.97,0,0,2.12-.8,1.64-.37-2.38,2.13-11.32,9.18-11.58,10.28-1.1,3.17,10.88,7.44,10.59,7.52-.29.08-.71-.04-4.3-1.38,1.29.83,4.73,3.26,4.85,3.58.1.24-2.98-.77-2.98-.77,0,0,2.24,2.38,1.88,2.32-.36-.06-4.02-2.1-4.02-2.1,0,0,3.45,3.86,2.81,3.4s-3.42-2.66-4.41-3.66c-4.99-5.06-7.3-2.11-8.09-1.58-.61.41-1.34.81-2.16.94-.27.77-.56,1.48-.78,1.57-.52.23-4.68,1.15-4.92,1.49-.07.19.34.22.61.31,1.06.35.97.88.97.88l-.32-.19s-.55.14-1.45-.43c-.82.54-.89.58-.91.89-.02.32.14.97.32,1.42.16.41-.26.54-.04.85-.56-.2-1.02-1.68-1.12-2.32-.74.93-.93,1.36-1.28,1.7-.15.07-.25.72-.25.72-.43-.18-.31-.66-.31-.66-.18-.49.9-1.74,1.26-2.14-.63,0-1.67.81-1.67.81-.16-.06-.4.34-.4.34-.18-.43.25-.69.25-.69.03-.33,1.53-.78,2.55-1.55.45-.55,4.82-2.12,5.74-2.43.18-.14.33-.41.47-.74-.35-.39-.16-1.25-1.54-1.95-.51-.25-.98-.33-1.4-.35-.08.14-.15.23-.22.26-.52.24-4.64,1.29-4.87,1.63-.07.2.34.21.62.3,1.07.32,1,.85,1,.85l-.32-.18s-.55.16-1.46-.39c-.16.11-.27.29-.15.58.13.3.57.79.94,1.11.33.29.02.6.36.77-.59.08-1.69-1.02-2.06-1.54-.23,1.17-.19,1.64-.35,2.1-.1.14.12.75.12.75-.47.04-.58-.44-.58-.44-.39-.35,0-1.96.13-2.48-.56.29-1.11,1.49-1.11,1.49-.17.02-.2.49-.2.49-.36-.3-.09-.72-.09-.72-.13-.3,1-1.4,1.55-2.56.13-.64,3.84-2.1,5.18-2.6,0-.09.02-.2.04-.32,0-.02,0-.05,0-.07-.21-.47-.15-2.26-.15-2.26-.36-1.57-1.22-3.39-2.56-4.85-.7-.77-3.52-1.95-3.52-1.95-.35-.02-3,.73-3,.73.02-.49,3.41-2.04,2.82-2.46-.84-.29-1.08-.25-1.08-.25-.27-.04-2.51.37-2.77.43.42-.93,1.29-1.39,2.23-1.73.93-.34,1.97-1.02,2.26-1.16.69-.33,3.02-.16,3.57.09.3-.47-1.09-5.76-1.11-7.62,0-.64,1.03,1.47,1.03,1.47,0,0-2.14-10.27-1.97-11.03s1.87,2.35,1.87,2.35c0,0-.95-11.51-.13-11.46.21.01.82,3.81.82,3.81,0,0,2.41-10.49,6.32-14.52.43-.02-2.16,4.17-2.33,8.1,1.81-5.6,4.98-9.49,7.82-11.39.47.11-4.75,7.15-6.09,13.55,1.66-2.95,4.39-8.41,7.87-10.92.49-.32-3.17,4.75-4.61,9,1.63-1.54,3.48-3.32,4.87-3.67.47-.06-3.86,5.53-4.88,8.51,0,0,1.28-1.39,1.75-1.53.48-.15-2.04,5.24-1.85,8.68.2,3.44,2.15,3.84,2.66,7.77.51,3.93,2.58,3.01,5.15.58,2.57-2.43,7.91-4.49,9.32-6.73,1.41-2.24,3.07-5.91,3.49-6.62.42-.7-.46,2.97-.46,2.97.35.12,4.52-8.16,5.61-11.01.16-.41.45,1.95-1.47,6.61,1.39-1.15,6.05-11.02,6-10.21s-1.3,6.31-6.06,15.44c1.1-.7,8.38-10.86,8.26-10.46-.97,3.14-6.68,12.51-6.68,12.51.78-.39,5.16-5.28,4.92-4.63Z"/>
  </g>
</svg>